<svg viewBox="0 0 18 12" width="18" height="12" xmlns="http://www.w3.org/2000/svg">
    <path
            fill="#D1D1D1"
            fill-rule="evenodd"
            clip-rule="evenodd"
            d="M4.82 1.928c0 .237.192.429.429.429h1.713a.428.428 0 1 0 0-.857H5.25a.428.428 0 0 0-.429.428Zm1.285 5.14a.428.428 0 0 1-.428-.428V4.927a.428.428 0 0 1 .857 0V6.64a.428.428 0 0 1-.429.429Zm3.856-.423A3.853 3.853 0 0 1 6.105 10.5a3.856 3.856 0 0 1 0-7.71 3.84 3.84 0 0 1 2.408.848l.308-.308a.432.432 0 0 1 .613-.015.44.44 0 0 1-.013.622l-.304.305a3.83 3.83 0 0 1 .844 2.403ZM6.105 3.646a2.996 2.996 0 0 1 3 2.999 2.996 2.996 0 0 1-3 2.998 2.996 2.996 0 0 1-2.998-2.998 2.996 2.996 0 0 1 2.998-2.999Z"
    />
</svg>