<svg viewBox="0 0 18 12" width="18" height="12" xmlns="http://www.w3.org/2000/svg">
    <defs>
        <clipPath id="clip0_510_18924">
            <path d="M1.5 1.5h14.25v9H1.5z"></path>
        </clipPath>
    </defs>
    <g clip-path="url(#clip0_510_18924)" fill="#D1D1D1">
            <path d="M11.25 1.5A4.504 4.504 0 0 0 6.75 6c0 2.482 2.018 4.5 4.5 4.5s4.5-2.018 4.5-4.5-2.018-4.5-4.5-4.5Zm0 8.1a3.6 3.6 0 0 1 0-7.2 3.6 3.6 0 0 1 0 7.2Z"></path>
        <path d="M13.005 4.335 10.35 6.99l-.855-.855a.448.448 0 0 0-.63 0 .448.448 0 0 0 0 .63l1.162 1.162a.457.457 0 0 0 .638 0l2.97-2.962a.448.448 0 0 0 0-.63.448.448 0 0 0-.63 0Z"></path>
    </g>
</svg>